<svg width="162" height="32" viewBox="0 0 162 32" fill="none" xmlns="http://www.w3.org/2000/svg">
<path d="M8.34697 31.0186C7.74697 31.0186 7.12031 30.9252 6.46697 30.7386C5.81364 30.5519 5.20031 30.2119 4.62697 29.7186C4.06697 29.2119 3.61364 28.4986 3.26697 27.5786C2.92031 26.6586 2.74697 25.4652 2.74697 23.9986V3.63857H0.806973V2.53857H8.98697V3.63857H7.00697V24.0986C7.00697 26.0186 7.20031 27.4252 7.58697 28.3186C7.98697 29.1986 8.60031 29.6386 9.42697 29.6386C9.74697 29.6386 10.067 29.5719 10.387 29.4386C10.7203 29.2919 11.0203 29.0386 11.287 28.6786C11.5536 28.3186 11.767 27.8186 11.927 27.1786C12.087 26.5386 12.167 25.7186 12.167 24.7186V3.63857H10.427V2.53857H15.167V3.63857H13.287V24.7386C13.287 26.3919 13.0736 27.6786 12.647 28.5986C12.2203 29.5052 11.6336 30.1386 10.887 30.4986C10.1536 30.8452 9.30697 31.0186 8.34697 31.0186ZM14.7754 30.5386V29.4386H16.4554L20.4154 2.49857H22.4554L26.8354 29.4386H28.6554V30.5386H20.6354V29.4386H22.2954L19.9154 12.2386H20.0154L17.6154 29.4386H19.0754V30.5386H14.7754ZM17.8154 24.8386V23.7986H22.2554V24.8386H17.8154ZM36.2423 30.5386V29.4386H38.1023V3.63857H36.2423V2.53857H43.4423C44.749 2.53857 45.949 3.05191 47.0423 4.07857C48.1356 5.10524 49.0156 6.63857 49.6823 8.67857C50.3623 10.7052 50.7023 13.2519 50.7023 16.3186C50.7023 19.4119 50.3623 22.0119 49.6823 24.1186C49.0156 26.2252 48.129 27.8252 47.0223 28.9186C45.929 29.9986 44.7356 30.5386 43.4423 30.5386H36.2423ZM42.3423 29.4386H43.1023C43.689 29.4386 44.2356 28.9586 44.7423 27.9986C45.2623 27.0386 45.6756 25.5852 45.9823 23.6386C46.3023 21.6919 46.4623 19.2519 46.4623 16.3186C46.4623 13.6652 46.3156 11.3986 46.0223 9.51857C45.729 7.62524 45.349 6.17191 44.8823 5.15857C44.429 4.14524 43.9356 3.63857 43.4023 3.63857H42.3423V29.4386ZM59.2076 30.9586C58.1943 30.9586 57.2876 30.6919 56.4876 30.1586C55.6876 29.6252 55.0143 28.8719 54.4676 27.8986C53.9209 26.9252 53.5076 25.7719 53.2276 24.4386C52.9476 23.0919 52.8076 21.6186 52.8076 20.0186C52.8076 18.1519 52.9943 16.5519 53.3676 15.2186C53.7409 13.8719 54.2343 12.7719 54.8476 11.9186C55.4743 11.0519 56.1543 10.4186 56.8876 10.0186C57.6343 9.60524 58.3743 9.39857 59.1076 9.39857C59.9743 9.39857 60.7609 9.63191 61.4676 10.0986C62.1743 10.5652 62.7809 11.2119 63.2876 12.0386C63.7943 12.8652 64.1809 13.8319 64.4476 14.9386C64.7276 16.0319 64.8676 17.2186 64.8676 18.4986C64.8676 18.7652 64.8609 19.0319 64.8476 19.2986C64.8476 19.5519 64.8409 19.8119 64.8276 20.0786H56.7476V18.9786H60.8076C60.8076 17.0319 60.7476 15.4386 60.6276 14.1986C60.5209 12.9452 60.3409 12.0186 60.0876 11.4186C59.8476 10.8052 59.5209 10.4986 59.1076 10.4986C58.6943 10.4986 58.3343 10.8052 58.0276 11.4186C57.7209 12.0186 57.4743 12.9852 57.2876 14.3186C57.1143 15.6386 57.0276 17.3919 57.0276 19.5786C57.0276 21.1519 57.0676 22.5652 57.1476 23.8186C57.2276 25.0719 57.3676 26.1386 57.5676 27.0186C57.7676 27.8852 58.0409 28.5519 58.3876 29.0186C58.7476 29.4719 59.2076 29.6986 59.7676 29.6986C60.7543 29.6986 61.5343 29.4452 62.1076 28.9386C62.6943 28.4319 63.0943 27.9119 63.3076 27.3786L64.2476 27.9986C63.9543 28.7586 63.3609 29.4452 62.4676 30.0586C61.5876 30.6586 60.5009 30.9586 59.2076 30.9586ZM66.7482 30.5386V29.4386H68.8482V10.6986H66.4082V9.59857H68.8482V7.23857C68.8482 5.87857 69.0482 4.67857 69.4482 3.63857C69.8616 2.59857 70.4882 1.78524 71.3282 1.19857C72.1682 0.611906 73.2149 0.318573 74.4682 0.318573C75.7349 0.318573 76.7082 0.811907 77.3882 1.79857C78.0816 2.77191 78.4282 4.01191 78.4282 5.51857C78.4282 6.30524 78.2816 6.91191 77.9882 7.33857C77.6949 7.75191 77.2616 7.95857 76.6882 7.95857C76.1016 7.95857 75.6749 7.76524 75.4082 7.37857C75.1549 6.99191 75.0282 6.50524 75.0282 5.91857C75.0282 5.45191 75.1149 5.07191 75.2882 4.77857C75.4749 4.47191 75.6616 4.19191 75.8482 3.93857C76.0349 3.68524 76.1282 3.40524 76.1282 3.09857C76.1282 2.56524 76.0016 2.15857 75.7482 1.87857C75.4949 1.59857 75.1749 1.45857 74.7882 1.45857C74.4016 1.45857 74.0949 1.61857 73.8682 1.93857C73.6416 2.24524 73.4682 2.67191 73.3482 3.21857C73.2282 3.76524 73.1482 4.39857 73.1082 5.11857C73.0682 5.83857 73.0482 6.60524 73.0482 7.41857V9.59857H75.6482V10.6986H73.0482V29.4386H75.2082V30.5386H66.7482ZM84.0904 30.9586C83.0771 30.9586 82.1704 30.6919 81.3704 30.1586C80.5704 29.6252 79.8971 28.8719 79.3504 27.8986C78.8037 26.9252 78.3904 25.7719 78.1104 24.4386C77.8304 23.0919 77.6904 21.6186 77.6904 20.0186C77.6904 18.1519 77.8771 16.5519 78.2504 15.2186C78.6237 13.8719 79.1171 12.7719 79.7304 11.9186C80.3571 11.0519 81.0371 10.4186 81.7704 10.0186C82.5171 9.60524 83.2571 9.39857 83.9904 9.39857C84.8571 9.39857 85.6437 9.63191 86.3504 10.0986C87.0571 10.5652 87.6637 11.2119 88.1704 12.0386C88.6771 12.8652 89.0637 13.8319 89.3304 14.9386C89.6104 16.0319 89.7504 17.2186 89.7504 18.4986C89.7504 18.7652 89.7437 19.0319 89.7304 19.2986C89.7304 19.5519 89.7237 19.8119 89.7104 20.0786H81.6304V18.9786H85.6904C85.6904 17.0319 85.6304 15.4386 85.5104 14.1986C85.4037 12.9452 85.2237 12.0186 84.9704 11.4186C84.7304 10.8052 84.4037 10.4986 83.9904 10.4986C83.5771 10.4986 83.2171 10.8052 82.9104 11.4186C82.6037 12.0186 82.3571 12.9852 82.1704 14.3186C81.9971 15.6386 81.9104 17.3919 81.9104 19.5786C81.9104 21.1519 81.9504 22.5652 82.0304 23.8186C82.1104 25.0719 82.2504 26.1386 82.4504 27.0186C82.6504 27.8852 82.9237 28.5519 83.2704 29.0186C83.6304 29.4719 84.0904 29.6986 84.6504 29.6986C85.6371 29.6986 86.4171 29.4452 86.9904 28.9386C87.5771 28.4319 87.9771 27.9119 88.1904 27.3786L89.1304 27.9986C88.8371 28.7586 88.2437 29.4452 87.3504 30.0586C86.4704 30.6586 85.3837 30.9586 84.0904 30.9586ZM91.471 30.5386V29.4386H93.471V10.6986H91.471V9.59857H97.591V11.9186C97.671 11.6252 97.8444 11.2786 98.111 10.8786C98.391 10.4786 98.7777 10.1319 99.271 9.83857C99.7644 9.54524 100.371 9.39857 101.091 9.39857C101.851 9.39857 102.551 9.56524 103.191 9.89857C103.831 10.2319 104.351 10.8586 104.751 11.7786C105.151 12.6986 105.351 14.0452 105.351 15.8186V29.4386H107.291V30.5386H99.671V29.4386H101.151V16.0186C101.151 14.3786 101.038 13.1786 100.811 12.4186C100.584 11.6452 100.204 11.2586 99.671 11.2586C99.391 11.2586 99.131 11.3719 98.891 11.5986C98.6644 11.8119 98.4577 12.1119 98.271 12.4986C98.0977 12.8719 97.9577 13.2919 97.851 13.7586C97.7444 14.2119 97.6844 14.6786 97.671 15.1586V29.4386H99.111V30.5386H91.471ZM114.444 30.9386C113.484 30.9386 112.591 30.6052 111.764 29.9386C110.951 29.2719 110.291 28.1586 109.784 26.5986C109.277 25.0252 109.024 22.8852 109.024 20.1786C109.024 17.6186 109.271 15.5519 109.764 13.9786C110.257 12.3919 110.891 11.2386 111.664 10.5186C112.451 9.78524 113.284 9.41857 114.164 9.41857C114.871 9.41857 115.424 9.56524 115.824 9.85857C116.224 10.1519 116.511 10.4786 116.684 10.8386C116.871 11.1986 116.991 11.4786 117.044 11.6786V1.65857H114.844V0.538572H121.324V29.4386H123.524V30.5386H117.524L117.264 28.1386C117.237 28.4719 117.117 28.8652 116.904 29.3186C116.691 29.7586 116.377 30.1386 115.964 30.4586C115.564 30.7786 115.057 30.9386 114.444 30.9386ZM115.184 29.0986C115.544 29.0986 115.857 28.8719 116.124 28.4186C116.391 27.9519 116.604 27.3652 116.764 26.6586C116.924 25.9386 117.017 25.1986 117.044 24.4386V15.2586C117.004 14.5919 116.891 13.9652 116.704 13.3786C116.531 12.7919 116.311 12.3186 116.044 11.9586C115.777 11.5986 115.477 11.4186 115.144 11.4186C114.811 11.4186 114.524 11.6519 114.284 12.1186C114.057 12.5719 113.871 13.2052 113.724 14.0186C113.577 14.8319 113.471 15.7719 113.404 16.8386C113.337 17.9052 113.304 19.0452 113.304 20.2586C113.304 21.5519 113.337 22.7386 113.404 23.8186C113.471 24.8986 113.577 25.8319 113.724 26.6186C113.871 27.4052 114.064 28.0186 114.304 28.4586C114.544 28.8852 114.837 29.0986 115.184 29.0986ZM131.161 30.9586C130.147 30.9586 129.241 30.6919 128.441 30.1586C127.641 29.6252 126.967 28.8719 126.421 27.8986C125.874 26.9252 125.461 25.7719 125.181 24.4386C124.901 23.0919 124.761 21.6186 124.761 20.0186C124.761 18.1519 124.947 16.5519 125.321 15.2186C125.694 13.8719 126.187 12.7719 126.801 11.9186C127.427 11.0519 128.107 10.4186 128.841 10.0186C129.587 9.60524 130.327 9.39857 131.061 9.39857C131.927 9.39857 132.714 9.63191 133.421 10.0986C134.127 10.5652 134.734 11.2119 135.241 12.0386C135.747 12.8652 136.134 13.8319 136.401 14.9386C136.681 16.0319 136.821 17.2186 136.821 18.4986C136.821 18.7652 136.814 19.0319 136.801 19.2986C136.801 19.5519 136.794 19.8119 136.781 20.0786H128.701V18.9786H132.761C132.761 17.0319 132.701 15.4386 132.581 14.1986C132.474 12.9452 132.294 12.0186 132.041 11.4186C131.801 10.8052 131.474 10.4986 131.061 10.4986C130.647 10.4986 130.287 10.8052 129.981 11.4186C129.674 12.0186 129.427 12.9852 129.241 14.3186C129.067 15.6386 128.981 17.3919 128.981 19.5786C128.981 21.1519 129.021 22.5652 129.101 23.8186C129.181 25.0719 129.321 26.1386 129.521 27.0186C129.721 27.8852 129.994 28.5519 130.341 29.0186C130.701 29.4719 131.161 29.6986 131.721 29.6986C132.707 29.6986 133.487 29.4452 134.061 28.9386C134.647 28.4319 135.047 27.9119 135.261 27.3786L136.201 27.9986C135.907 28.7586 135.314 29.4452 134.421 30.0586C133.541 30.6586 132.454 30.9586 131.161 30.9586ZM138.381 30.5386V29.4386H140.361V10.6986H138.381V9.59857H144.301L144.481 11.6586C144.521 11.4586 144.661 11.1786 144.901 10.8186C145.155 10.4586 145.488 10.1319 145.901 9.83857C146.328 9.54524 146.821 9.39857 147.381 9.39857C148.101 9.39857 148.701 9.64524 149.181 10.1386C149.661 10.6186 150.021 11.2652 150.261 12.0786C150.515 12.8919 150.641 13.7986 150.641 14.7986C150.641 15.5986 150.488 16.2119 150.181 16.6386C149.875 17.0652 149.461 17.2786 148.941 17.2786C148.435 17.2786 148.035 17.0919 147.741 16.7186C147.448 16.3319 147.301 15.8186 147.301 15.1786C147.301 14.7652 147.381 14.4186 147.541 14.1386C147.701 13.8452 147.855 13.5586 148.001 13.2786C148.161 12.9986 148.241 12.6652 148.241 12.2786C148.241 11.7186 148.141 11.3119 147.941 11.0586C147.741 10.7919 147.448 10.6586 147.061 10.6586C146.621 10.6586 146.208 10.8719 145.821 11.2986C145.448 11.7252 145.141 12.3052 144.901 13.0386C144.675 13.7719 144.561 14.5919 144.561 15.4986V29.4386H146.581V30.5386H138.381ZM157.043 30.9786C156.336 30.9786 155.769 30.8786 155.343 30.6786C154.929 30.4919 154.596 30.3052 154.343 30.1186C154.089 29.9319 153.856 29.8386 153.643 29.8386C153.469 29.8386 153.349 29.9052 153.283 30.0386C153.216 30.1586 153.176 30.3252 153.163 30.5386H152.203V24.1986H153.363C153.429 24.9319 153.563 25.6386 153.763 26.3186C153.963 26.9986 154.216 27.6052 154.523 28.1386C154.829 28.6719 155.189 29.0986 155.603 29.4186C156.029 29.7252 156.503 29.8786 157.023 29.8786C157.503 29.8786 157.889 29.7719 158.183 29.5586C158.489 29.3319 158.709 29.0386 158.843 28.6786C158.976 28.3052 159.043 27.9052 159.043 27.4786C159.043 26.8786 158.916 26.2786 158.663 25.6786C158.409 25.0652 158.049 24.4452 157.583 23.8186C157.129 23.1919 156.583 22.5452 155.943 21.8786C154.889 20.7452 154.009 19.5986 153.303 18.4386C152.609 17.2786 152.263 15.8986 152.263 14.2986C152.263 13.1519 152.489 12.2186 152.943 11.4986C153.409 10.7786 153.996 10.2519 154.703 9.91857C155.423 9.57191 156.176 9.39857 156.963 9.39857C157.536 9.39857 157.996 9.47191 158.343 9.61857C158.703 9.76524 158.989 9.91191 159.203 10.0586C159.429 10.2052 159.616 10.2786 159.763 10.2786C159.896 10.2786 159.996 10.2252 160.063 10.1186C160.129 9.99857 160.163 9.82524 160.163 9.59857H161.183V15.7586H160.023C159.969 15.0786 159.869 14.4252 159.723 13.7986C159.576 13.1586 159.376 12.5986 159.123 12.1186C158.883 11.6252 158.583 11.2386 158.223 10.9586C157.876 10.6652 157.469 10.5186 157.003 10.5186C156.376 10.5186 155.876 10.7519 155.503 11.2186C155.143 11.6719 154.963 12.2586 154.963 12.9786C154.963 13.8186 155.236 14.6319 155.783 15.4186C156.329 16.1919 157.056 17.0452 157.963 17.9786C158.696 18.7252 159.349 19.4852 159.923 20.2586C160.509 21.0319 160.969 21.8652 161.303 22.7586C161.636 23.6386 161.803 24.6186 161.803 25.6986C161.803 26.8719 161.603 27.8519 161.203 28.6386C160.803 29.4119 160.243 29.9986 159.523 30.3986C158.816 30.7852 157.989 30.9786 157.043 30.9786Z" fill="#C08767"/>
</svg>
