<svg width="66" height="56" viewBox="0 0 66 56" fill="none" xmlns="http://www.w3.org/2000/svg">
<path d="M65 28C65 42.764 50.8335 55 33 55C15.1665 55 1 42.764 1 28C1 13.2361 15.1665 1 33 1C50.8335 1 65 13.2361 65 28Z" fill="#F2E3CC" stroke="#C08767" stroke-width="2"/>
<path d="M28.496 22.3951C28.8964 17.4451 31.286 15.4238 36.5172 15.4238H36.6852C42.4589 15.4238 44.771 17.8851 44.771 24.0313V32.9963C44.771 39.1426 42.4589 41.6038 36.6852 41.6038H36.5172C31.3247 41.6038 28.9352 39.6101 28.5089 34.7426M19.5835 28.5001H36.2202" stroke="black" stroke-width="1.5" stroke-linecap="round" stroke-linejoin="round"/>
<path d="M33.3394 23.8936L37.6664 28.4998L33.3394 33.1061" stroke="black" stroke-width="1.5" stroke-linecap="round" stroke-linejoin="round"/>
<path d="M28.496 22.3951C28.8964 17.4451 31.286 15.4238 36.5172 15.4238H36.6852C42.4589 15.4238 44.771 17.8851 44.771 24.0313V32.9963C44.771 39.1426 42.4589 41.6038 36.6852 41.6038H36.5172C31.3247 41.6038 28.9352 39.6101 28.5089 34.7426M19.5835 28.5001H36.2202" stroke="black" stroke-width="1.5" stroke-linecap="round" stroke-linejoin="round"/>
<path d="M33.3394 23.8936L37.6664 28.4998L33.3394 33.1061" stroke="black" stroke-width="1.5" stroke-linecap="round" stroke-linejoin="round"/>
</svg>
